<?xml version="1.0" encoding="UTF-8"?>
<svg id="Capa_2" data-name="Capa 2" xmlns="http://www.w3.org/2000/svg" viewBox="0 0 362.33 361.29">
  <defs>
    <style>
      .cls-1 {
        fill: #03a1ec;
      }

      .cls-1, .cls-2, .cls-3 {
        stroke-width: 0px;
      }

      .cls-4 {
        stroke: #04589f;
      }

      .cls-4, .cls-5 {
        fill: none;
        stroke-width: 2px;
      }

      .cls-2 {
        fill: #040f51;
      }

      .cls-5 {
        stroke: #8287a8;
      }

      .cls-3 {
        fill: #fff;
      }
    </style>
  </defs>
  <g id="Capa_1-2" data-name="Capa 1">
    <g>
      <path class="cls-5" d="m361.39,185.09c-.87-2.46-1.2-5.24-2.15-7.39-5.47-12.25-20.12-14.88-31.87-11.16-.29.09-.6-.08-.69-.37-.02-.05-.02-.1-.02-.15v-27.76c.01-.35-.16-.49-.5-.44l-16.49,2.64c-.14.02-.24.15-.24.29v85.77c0,.17.08.25.24.25h16.5c.33,0,.5-.17.5-.5v-44.76c0-.39.18-.63.55-.74,6.05-1.8,14.65-2.39,16.34,5.28.7,3.21,1.05,5.96,1.06,8.23.05,10.62.06,21.27.05,31.94,0,.35.17.52.52.52l16.21.02" vector-effect="non-scaling-stroke"/>
      <path class="cls-5" d="m361.38,242.25l-276.9.31c-.29,0-.53-.24-.53-.53l.04-65.21c0-.21-.17-.38-.38-.38-.05,0-.11.01-.16.04l-15.71,7.62c-.17.08-.27.24-.27.42-.25,17.89-.53,35.8-.82,53.74-.17,10.08,7.01,21.26,17.77,21.27,92.31.02,184.63-.05,276.96-.22" vector-effect="non-scaling-stroke"/>
      <path class="cls-4" d="m84.31,153.48c0-4.93-3.99-8.92-8.92-8.92h0c-4.93,0-8.92,3.99-8.92,8.92h0c0,4.93,3.99,8.92,8.92,8.92s8.92-3.99,8.92-8.92" vector-effect="non-scaling-stroke"/>
      <path class="cls-5" d="m275.69,180.77h19.48c.28,0,.5-.22.5-.5v-13.25c0-.33-.17-.5-.5-.5h-19.75c-.14,0-.25-.11-.25-.25v-17.07c0-.28-.23-.5-.5-.5-.03,0-.05,0-.08,0l-16.15,2.64c-.33.05-.5.25-.5.59-.04,16.53-.03,33.05.02,49.58.02,6.77.87,14.48,5.04,19.67,7.45,9.26,24.25,7.93,34.21,4.28.55-.2.77-.59.67-1.16l-2.12-12.06c-.04-.19-.22-.31-.41-.28-.01,0-.02,0-.03,0-8.12,2.45-19.96,4.54-20.1-8.21-.08-7.5-.09-15-.02-22.51,0-.33.16-.49.49-.49" vector-effect="non-scaling-stroke"/>
      <path class="cls-5" d="m230.79,190.25c-14.97-2.69-37.52.05-34.64,21.53,3.02,22.53,36.53,16.63,51.21,13.61.32-.07.55-.35.56-.68.04-11.98-.02-23.96-.19-35.94-.21-15.22-7.43-23.07-22.81-23.7-7.88-.33-15.52.53-22.92,2.57-.35.1-.5.33-.44.68l1.98,12.69c.04.25.27.41.52.37.02,0,.04,0,.06-.01,4.61-1.35,9.29-2.07,14.05-2.15,7.68-.12,13.64,1.65,13.2,10.57-.02.37-.21.53-.58.46" vector-effect="non-scaling-stroke"/>
      <path class="cls-5" d="m150.38,181.83c5.56-2.81,13.5-3.78,15.61,3.97.79,2.89,1.18,4.71,1.18,5.47,0,11.73,0,23.48,0,35.24,0,.34.17.51.51.51h16.17c.27,0,.41-.14.42-.41.35-20.27.32-33.05-.08-38.34-.8-10.53-4.15-19.43-15.55-22.08-9.06-2.11-17.42-.69-25.09,4.24-.31.2-.7.19-.99-.02-4.11-2.93-8.03-4.71-13.44-5.01-9.37-.53-18.6.53-27.69,3.16-.35.1-.52.33-.52.7v57.26c0,.27.22.49.5.49h16c.27,0,.49-.21.49-.49h0v-45.51c0-.38.19-.61.56-.69,8.41-1.94,15.38.24,15.42,10.2.04,11.9.05,23.82.02,35.75,0,.5.25.75.75.75h16.25c.15,0,.27-.12.27-.27,0-11.64-.04-23.3-.15-34.98-.03-3.13-.35-6.21-.98-9.25-.06-.28.08-.56.33-.69" vector-effect="non-scaling-stroke"/>
      <path class="cls-5" d="m231.46,213.44l-.04-10.92c0-.82-.67-1.49-1.49-1.49h0l-8.95.03c-4.47.02-8.09,2.77-8.08,6.16,0,0,0,0,0,0v1.64c.01,3.38,3.65,6.12,8.12,6.1l8.95-.03c.82,0,1.49-.67,1.49-1.49" vector-effect="non-scaling-stroke"/>
    </g>
    <path class="cls-2" d="m361.39,185.09c-.87-2.46-1.2-5.24-2.15-7.39-5.47-12.25-20.12-14.88-31.87-11.16-.29.09-.6-.08-.69-.37-.02-.05-.02-.1-.02-.15v-27.76c.01-.35-.16-.49-.5-.44l-16.49,2.64c-.14.02-.24.15-.24.29v85.77c0,.17.08.25.24.25h16.5c.33,0,.5-.17.5-.5v-44.76c0-.39.18-.63.55-.74,6.05-1.8,14.65-2.39,16.34,5.28.7,3.21,1.05,5.96,1.06,8.23.05,10.62.06,21.27.05,31.94,0,.35.17.52.52.52l16.21.02-.02,15.49-276.9.31c-.29,0-.53-.24-.53-.53l.04-65.21c0-.21-.17-.38-.38-.38-.05,0-.11.01-.16.04l-15.71,7.62c-.17.08-.27.24-.27.42-.25,17.89-.53,35.8-.82,53.74-.17,10.08,7.01,21.26,17.77,21.27,92.31.02,184.63-.05,276.96-.22.17,28.24.1,50.64-.19,67.21-.27,15.29-11.24,28.97-25.77,33.24-3.42,1-9.14,1.5-17.15,1.51-94.7.02-189.4.02-284.1,0-3,0-6.39-.69-10.17-2.06-12.47-4.53-21.26-15.4-23.42-28.23-.38-2.23-.57-8.88-.57-19.96C.01,223.52,0,136.02,0,48.52c0-10.56.28-17.21.84-19.94C2.66,19.73,7.38,12.48,14.99,6.83,23.36.62,31.7,0,43.25,0,137.81,0,232.37,0,326.92,0c2.38,0,5.21.51,8.48,1.52,12.04,3.73,20.94,12.71,24.47,24.71.85,2.91,1.28,6.82,1.29,11.72.1,49.04.31,98.07.23,147.13Zm-277.08-31.61c0-4.93-3.99-8.92-8.92-8.92h0c-4.93,0-8.92,3.99-8.92,8.92h0c0,4.93,3.99,8.92,8.92,8.92s8.92-3.99,8.92-8.92Zm191.38,27.29h19.48c.28,0,.5-.22.5-.5v-13.25c0-.33-.17-.5-.5-.5h-19.75c-.14,0-.25-.11-.25-.25v-17.07c0-.28-.23-.5-.5-.5-.03,0-.05,0-.08,0l-16.15,2.64c-.33.05-.5.25-.5.59-.04,16.53-.03,33.05.02,49.58.02,6.77.87,14.48,5.04,19.67,7.45,9.26,24.25,7.93,34.21,4.28.55-.2.77-.59.67-1.16l-2.12-12.06c-.04-.19-.22-.31-.41-.28-.01,0-.02,0-.03,0-8.12,2.45-19.96,4.54-20.1-8.21-.08-7.5-.09-15-.02-22.51,0-.33.16-.49.49-.49Zm-44.9,9.48c-14.97-2.69-37.52.05-34.64,21.53,3.02,22.53,36.53,16.63,51.21,13.61.32-.07.55-.35.56-.68.04-11.98-.02-23.96-.19-35.94-.21-15.22-7.43-23.07-22.81-23.7-7.88-.33-15.52.53-22.92,2.57-.35.1-.5.33-.44.68l1.98,12.69c.04.25.27.41.52.37.02,0,.04,0,.06-.01,4.61-1.35,9.29-2.07,14.05-2.15,7.68-.12,13.64,1.65,13.2,10.57-.02.37-.21.53-.58.46Zm-80.41-8.42c5.56-2.81,13.5-3.78,15.61,3.97.79,2.89,1.18,4.71,1.18,5.47,0,11.73,0,23.48,0,35.24,0,.34.17.51.51.51h16.17c.27,0,.41-.14.42-.41.35-20.27.32-33.05-.08-38.34-.8-10.53-4.15-19.43-15.55-22.08-9.06-2.11-17.42-.69-25.09,4.24-.31.2-.7.19-.99-.02-4.11-2.93-8.03-4.71-13.44-5.01-9.37-.53-18.6.53-27.69,3.16-.35.1-.52.33-.52.7v57.26c0,.27.22.49.5.49h16c.27,0,.49-.21.49-.49h0v-45.51c0-.38.19-.61.56-.69,8.41-1.94,15.38.24,15.42,10.2.04,11.9.05,23.82.02,35.75,0,.5.25.75.75.75h16.25c.15,0,.27-.12.27-.27,0-11.64-.04-23.3-.15-34.98-.03-3.13-.35-6.21-.98-9.25-.06-.28.08-.56.33-.69Z"/>
    <path class="cls-3" d="m361.39,185.09v41.67s-16.2-.02-16.2-.02c-.35,0-.52-.17-.52-.52.01-10.67,0-21.32-.05-31.94,0-2.27-.36-5.02-1.06-8.23-1.69-7.67-10.29-7.08-16.34-5.28-.37.11-.55.35-.55.74v44.76c0,.33-.17.5-.5.5h-16.5c-.16,0-.24-.08-.24-.25v-85.77c0-.14.1-.27.24-.29l16.49-2.64c.34-.05.51.09.51.44v27.76c0,.3.24.55.55.54.05,0,.1,0,.15-.02,11.75-3.72,26.4-1.09,31.87,11.16.95,2.15,1.28,4.93,2.15,7.39Z"/>
    <circle class="cls-1" cx="75.39" cy="153.48" r="8.92"/>
    <path class="cls-3" d="m275.2,181.26c-.07,7.51-.06,15.01.02,22.51.14,12.75,11.98,10.66,20.1,8.21.19-.05.38.05.43.24,0,0,0,.02,0,.03l2.12,12.06c.1.57-.12.96-.67,1.16-9.96,3.65-26.76,4.98-34.21-4.28-4.17-5.19-5.02-12.9-5.04-19.67-.05-16.53-.06-33.05-.02-49.58,0-.34.17-.54.5-.59l16.15-2.64c.27-.04.53.14.57.41,0,.03,0,.05,0,.08v17.07c0,.14.11.25.25.25h19.75c.33,0,.5.17.5.5v13.25c0,.28-.22.5-.5.5h-19.48c-.33,0-.49.16-.49.49Z"/>
    <path class="cls-3" d="m231.37,189.79c.44-8.92-5.52-10.69-13.2-10.57-4.76.08-9.44.8-14.05,2.15-.24.07-.5-.07-.57-.3,0-.02,0-.04-.01-.06l-1.98-12.69c-.06-.35.09-.58.44-.68,7.4-2.04,15.04-2.9,22.92-2.57,15.38.63,22.6,8.48,22.81,23.7.17,11.98.23,23.96.19,35.94,0,.33-.24.61-.56.68-14.68,3.02-48.19,8.92-51.21-13.61-2.88-21.48,19.67-24.22,34.64-21.53.37.07.56-.09.58-.46Zm.09,23.65l-.04-10.92c0-.82-.67-1.49-1.49-1.49h0l-8.95.03c-4.47.02-8.09,2.77-8.08,6.16,0,0,0,0,0,0v1.64c.01,3.38,3.65,6.12,8.12,6.1l8.95-.03c.82,0,1.49-.67,1.49-1.49Z"/>
    <path class="cls-3" d="m150.38,181.83c-.25.13-.39.41-.33.69.63,3.04.95,6.12.98,9.25.11,11.68.16,23.34.15,34.98,0,.15-.12.27-.27.27h-16.25c-.5,0-.75-.25-.75-.75.03-11.93.02-23.85-.02-35.75-.04-9.96-7.01-12.14-15.42-10.2-.37.08-.55.31-.55.69v45.51c0,.28-.23.5-.5.5h-16c-.28,0-.5-.23-.5-.5h0v-57.26c0-.37.17-.6.52-.7,9.09-2.63,18.32-3.69,27.69-3.16,5.41.3,9.33,2.08,13.44,5.01.29.21.68.22.99.02,7.67-4.93,16.03-6.35,25.09-4.24,11.4,2.65,14.75,11.55,15.55,22.08.4,5.29.43,18.07.08,38.34,0,.27-.15.41-.42.41h-16.17c-.34,0-.51-.17-.51-.51,0-11.76,0-23.51,0-35.24,0-.76-.39-2.58-1.18-5.47-2.11-7.75-10.05-6.78-15.61-3.97Z"/>
    <path class="cls-3" d="m361.38,242.25v17.06c-92.33.17-184.65.24-276.96.22-10.76-.01-17.94-11.19-17.77-21.27.29-17.94.57-35.85.82-53.74,0-.18.1-.34.27-.42l15.71-7.62c.19-.09.42,0,.5.18.02.05.03.1.04.16l-.04,65.21c0,.29.24.53.53.53l276.9-.31Z"/>
    <path class="cls-2" d="m231.46,213.44c0,.82-.67,1.49-1.49,1.49l-8.95.03c-4.47.02-8.11-2.72-8.12-6.1v-1.64c-.01-3.39,3.6-6.14,8.08-6.16,0,0,0,0,0,0l8.95-.03c.82,0,1.49.67,1.49,1.49h0s.04,10.92.04,10.92Z"/>
  </g>
</svg>